<?xml version="1.0" standalone="no"?>
<!DOCTYPE svg PUBLIC "-//W3C//DTD SVG 20010904//EN"
 "http://www.w3.org/TR/2001/REC-SVG-20010904/DTD/svg10.dtd">
<svg version="1.0" xmlns="http://www.w3.org/2000/svg"
 width="737.000000pt" height="650.000000pt" viewBox="0 0 737.000000 650.000000"
 preserveAspectRatio="xMidYMid meet">
<metadata>
Created by potrace 1.16, written by Peter Selinger 2001-2019
</metadata>
<g transform="translate(0.000000,650.000000) scale(0.100000,-0.100000)"
fill="#000000" stroke="none">
<path d="M3095 6190 c-536 -16 -891 -108 -1217 -313 -500 -316 -808 -827 -873
-1451 -23 -224 -38 -829 -31 -1276 8 -454 22 -824 35 -882 5 -22 7 -46 4 -53
-6 -17 23 -13 40 5 10 12 9 12 -6 1 -14 -11 -17 -11 -17 1 0 8 5 19 12 26 9 9
9 15 0 24 -9 9 -12 8 -12 -7 0 -10 -3 -16 -6 -12 -11 10 7 46 20 41 10 -4 12
2 9 19 -4 18 2 28 24 43 15 10 31 18 35 16 4 -1 5 5 2 12 -3 8 0 25 7 38 7 13
12 28 10 33 -1 6 3 5 10 -2 10 -10 9 -16 -2 -29 -12 -16 -12 -17 1 -9 8 5 22
10 30 12 8 1 16 7 18 12 2 6 11 11 19 11 9 0 14 3 10 6 -15 16 26 33 96 39 54
5 77 12 82 23 5 13 3 13 -12 1 -16 -13 -17 -12 -4 4 7 9 22 17 32 17 10 0 22
7 27 16 6 12 16 14 32 9 18 -6 20 -9 9 -16 -11 -7 -11 -9 -1 -9 7 0 10 -4 7
-10 -3 -5 -1 -10 5 -10 6 0 9 -4 6 -8 -2 -4 3 -8 13 -8 10 0 18 7 17 15 -1 7
6 16 14 18 13 4 13 3 0 -6 -12 -8 -10 -10 9 -8 l23 1 -21 17 -21 18 21 6 c15
5 25 2 31 -9 6 -11 23 -16 54 -16 26 0 43 -4 39 -10 -3 -5 3 -18 15 -30 11
-11 21 -28 21 -37 1 -10 5 -2 9 17 7 33 7 32 9 -15 0 -30 8 -61 18 -75 20 -28
24 -71 8 -82 -6 -5 -2 -8 8 -8 17 0 17 8 10 118 -13 190 -9 1647 5 1797 32
342 97 541 241 732 180 239 449 387 786 433 289 39 1772 40 2086 0 198 -24
433 -114 569 -218 97 -73 228 -218 280 -307 89 -157 137 -306 166 -520 13 -99
17 -253 21 -878 6 -987 -6 -1198 -84 -1427 -65 -193 -142 -317 -276 -447 -140
-136 -279 -215 -477 -272 -114 -32 -205 -47 -345 -56 -189 -11 -260 -17 -264
-21 -4 -4 52 -8 102 -7 9 0 17 -4 17 -8 0 -10 69 -24 103 -20 16 1 39 -5 52
-13 29 -19 39 -20 29 -3 -6 9 -4 9 7 1 13 -11 95 -30 112 -26 4 1 7 -3 7 -8 0
-6 8 -10 18 -10 20 -1 68 -26 65 -34 -7 -14 -2 -27 7 -21 6 3 10 2 10 -3 0 -5
11 -21 25 -36 25 -27 42 -35 29 -14 -4 6 -3 8 4 5 5 -4 8 -16 5 -27 -5 -18 5
-25 29 -21 5 0 7 -2 7 -7 -4 -23 3 -42 15 -42 8 0 18 -5 22 -12 4 -6 3 -8 -4
-4 -6 3 -14 1 -18 -5 -4 -7 -3 -9 4 -5 6 3 13 2 17 -4 4 -6 10 -8 15 -5 7 4
12 -2 21 -30 6 -20 24 -32 39 -28 13 4 13 4 0 -7 -11 -9 -12 -13 -2 -17 6 -2
12 -16 12 -29 0 -14 4 -23 9 -19 5 3 12 1 16 -5 4 -6 9 -8 13 -6 4 2 7 -13 7
-35 0 -21 -3 -39 -6 -39 -4 0 -7 -6 -6 -12 1 -40 -5 -58 -19 -58 -13 0 -13 -2
2 -17 17 -17 17 -18 0 -21 -11 -2 -15 -9 -12 -19 3 -8 6 -16 6 -18 0 -7 140
25 200 45 385 133 716 388 944 729 109 163 206 392 262 616 63 253 78 516 77
1400 0 1006 -17 1216 -129 1555 -42 130 -144 342 -215 447 -176 262 -437 492
-714 631 -283 141 -584 205 -1045 221 -300 11 -1168 11 -1525 1z"/>
<path d="M3049 5019 c-344 -19 -506 -75 -659 -228 -149 -148 -210 -310 -231
-603 -11 -166 -8 -1693 4 -1738 4 -14 10 -52 13 -85 11 -100 15 -86 18 56 1
34 4 45 14 42 7 -3 12 -2 11 3 -3 14 25 74 34 74 4 0 5 5 1 11 -4 8 0 9 15 4
19 -6 26 2 23 26 -1 4 4 6 11 6 35 -1 48 4 41 16 -6 10 -4 10 7 0 14 -14 33
-18 25 -5 -2 4 5 9 17 9 17 2 18 0 7 -7 -11 -7 -10 -9 7 -7 12 0 20 4 17 8 -2
4 0 11 6 14 6 4 9 1 8 -7 -4 -19 56 -23 75 -4 13 13 16 13 20 2 4 -9 14 -12
27 -9 12 3 25 1 29 -5 6 -10 87 -21 211 -28 74 -4 115 -10 137 -22 10 -5 25
-7 33 -5 9 3 6 -1 -5 -10 l-20 -16 20 5 c13 3 31 -6 52 -26 18 -17 35 -26 38
-20 10 16 25 12 19 -5 -5 -11 -2 -13 10 -9 11 4 16 2 14 -6 -2 -8 8 -19 21
-26 13 -7 28 -19 33 -28 5 -8 15 -13 23 -9 11 3 13 1 10 -10 -4 -8 1 -17 9
-20 9 -4 16 -1 16 6 0 7 5 4 10 -5 6 -9 24 -19 41 -23 20 -5 29 -11 25 -21 -3
-8 1 -14 10 -14 8 0 13 4 10 9 -4 5 3 7 14 4 17 -5 18 -8 8 -21 -9 -11 -9 -14
-1 -9 7 4 16 0 21 -9 6 -11 17 -15 32 -11 15 4 20 2 17 -8 -5 -11 26 -24 68
-29 6 -1 10 -7 10 -15 0 -9 14 -15 38 -18 22 -2 50 -11 63 -19 13 -9 30 -14
37 -11 8 3 20 1 28 -5 11 -8 10 -9 -4 -4 -11 4 -16 2 -11 -5 3 -6 17 -8 31 -4
14 3 22 2 19 -4 -9 -14 20 -21 34 -8 10 9 11 9 6 0 -7 -12 6 -17 41 -16 7 1
10 -3 7 -8 -3 -5 2 -9 10 -9 9 0 25 -9 36 -20 11 -11 34 -20 52 -21 47 -2 69
-9 63 -20 -4 -5 1 -9 9 -9 9 0 16 -6 16 -14 0 -10 13 -16 38 -18 22 -2 36 -8
35 -15 -2 -9 4 -10 23 -3 16 6 23 6 19 0 -3 -5 3 -18 15 -30 11 -11 20 -22 20
-25 0 -3 3 -4 8 -2 4 1 6 4 5 7 -7 23 -6 33 5 35 7 2 8 1 2 -2 -6 -2 1 -14 14
-24 16 -13 23 -26 19 -36 -5 -13 -2 -15 11 -10 12 5 16 2 14 -11 -3 -17 1 -19
60 -21 27 -1 32 -5 32 -26 0 -17 5 -25 18 -25 14 0 15 2 2 10 -9 6 -10 10 -3
10 7 0 17 -9 23 -20 6 -11 15 -20 21 -20 5 0 20 -10 32 -21 12 -12 17 -19 11
-16 -15 8 -26 -17 -13 -30 5 -5 3 -20 -6 -36 -14 -27 -14 -28 8 -27 12 1 33 1
47 0 17 -2 12 -5 -19 -11 -24 -5 -62 -7 -85 -4 -23 2 -57 0 -76 -5 -46 -12
473 -2 595 11 204 22 357 91 486 219 162 161 212 314 230 705 13 277 5 1592
-10 1709 -29 217 -98 380 -210 495 -158 162 -323 219 -696 241 -198 11 -1362
11 -1576 -1z m2005 -353 c47 -19 104 -73 129 -120 28 -54 30 -165 3 -216 -100
-190 -345 -197 -454 -11 -22 38 -26 57 -26 116 0 59 4 78 27 117 29 51 76 94
122 114 40 17 157 18 199 0z m-1055 -282 c246 -36 448 -140 623 -320 221 -229
332 -568 288 -879 -48 -334 -245 -625 -535 -792 -103 -59 -218 -100 -348 -123
-138 -24 -199 -25 -332 -5 -182 27 -295 71 -445 170 -207 137 -356 340 -431
586 -27 90 -32 124 -36 252 -8 204 15 326 97 512 35 81 129 215 205 291 172
173 370 273 615 309 118 18 176 17 299 -1z"/>
<path d="M3740 4010 c-142 -23 -273 -92 -380 -199 -208 -209 -259 -520 -128
-788 35 -73 58 -104 133 -178 73 -74 106 -99 175 -132 209 -103 455 -95 652
19 391 226 463 757 146 1078 -150 153 -392 233 -598 200z"/>
</g>
</svg>
